<?xml version="1.0" encoding="UTF-8"?>
<svg width="800" height="480" viewBox="0 0 800 480" xmlns="http://www.w3.org/2000/svg">
  <!-- Saffron band -->
  <rect width="800" height="160" fill="#FF9933"/>
  
  <!-- White band -->
  <rect y="160" width="800" height="160" fill="#FFFFFF"/>
  
  <!-- Green band -->
  <rect y="320" width="800" height="160" fill="#138808"/>
  
  <!-- Ashoka Chakra -->
  <circle cx="400" cy="240" r="60" fill="#000080"/>
  <circle cx="400" cy="240" r="56" fill="#FFFFFF"/>
  <circle cx="400" cy="240" r="20" fill="#000080"/>
  
  <!-- 24 spokes -->
  <g stroke="#000080" stroke-width="4">
    <path d="M400,180 L400,300" transform="rotate(0 400 240)"/>
    <path d="M400,180 L400,300" transform="rotate(15 400 240)"/>
    <path d="M400,180 L400,300" transform="rotate(30 400 240)"/>
    <path d="M400,180 L400,300" transform="rotate(45 400 240)"/>
    <path d="M400,180 L400,300" transform="rotate(60 400 240)"/>
    <path d="M400,180 L400,300" transform="rotate(75 400 240)"/>
    <path d="M400,180 L400,300" transform="rotate(90 400 240)"/>
    <path d="M400,180 L400,300" transform="rotate(105 400 240)"/>
    <path d="M400,180 L400,300" transform="rotate(120 400 240)"/>
    <path d="M400,180 L400,300" transform="rotate(135 400 240)"/>
    <path d="M400,180 L400,300" transform="rotate(150 400 240)"/>
    <path d="M400,180 L400,300" transform="rotate(165 400 240)"/>
  </g>
</svg>